<svg
  width="730"
  height="980"
  viewBox="0 0 730 980"
  xmlns="http://www.w3.org/2000/svg"
  fill="currentColor"
>
  <!-- Bulb Outline -->
  <path
    d="M365 40
       C190 40 70 190 70 360
       C70 510 160 610 200 660
       C225 690 230 740 230 780
       L230 830
       C230 880 260 920 300 940
       L430 940
       C470 920 500 880 500 830
       L500 780
       C500 740 505 690 530 660
       C570 610 660 510 660 360
       C660 190 540 40 365 40
       Z"
  />

  <!-- Bulb Base -->
  <rect x="260" y="760" width="210" height="120" rx="40" />

  <!-- Gear (center) -->
  <g id="gear" transform="translate(365 360)">
    <path
      d="M0 -90
         L22 -80
         L60 -100
         L90 -60
         L80 -22
         L100 0
         L80 22
         L90 60
         L60 100
         L22 80
         L0 90
         L-22 80
         L-60 100
         L-90 60
         L-80 22
         L-100 0
         L-80 -22
         L-90 -60
         L-60 -100
         L-22 -80
         Z"
    />
    <circle cx="0" cy="0" r="28" fill="white" />
  </g>
</svg>
