<svg
  xmlns="http://www.w3.org/2000/svg"
  viewBox="0 0 512 512"
  fill="currentColor"
>
  <!-- Outer gear -->
  <path d="
    M256 32
    L298 40
    L320 80
    L368 96
    L408 80
    L448 120
    L432 160
    L472 200
    L472 256
    L472 312
    L432 352
    L448 392
    L408 432
    L368 416
    L320 432
    L298 472
    L256 480
    L214 472
    L192 432
    L144 416
    L104 432
    L64 392
    L80 352
    L40 312
    L40 256
    L40 200
    L80 160
    L64 120
    L104 80
    L144 96
    L192 80
    L214 40
    Z
  "/>

  <!-- Inner ring -->
  <circle cx="256" cy="256" r="120" fill="black"/>
</svg>
